<svg version="1.2" xmlns="http://www.w3.org/2000/svg" viewBox="0 0 139 20" width="139" height="20">
	<title>logo-svg</title>
	<defs>
		<linearGradient id="g1" x1="203.5" y1="0" x2="49.3" y2="388.2" gradientUnits="userSpaceOnUse">
			<stop offset="0" stop-color="#33d35e"/>
			<stop offset="1" stop-color="#2ab6d9"/>
		</linearGradient>
		<linearGradient id="g2" x1="210.9" y1="0" x2="56.7" y2="388.2" gradientUnits="userSpaceOnUse">
			<stop offset="0" stop-color="#33d35e"/>
			<stop offset="1" stop-color="#2ab6d9"/>
		</linearGradient>
		<linearGradient id="g3" x1="218.2" y1="0" x2="64.1" y2="388.2" gradientUnits="userSpaceOnUse">
			<stop offset="0" stop-color="#33d35e"/>
			<stop offset="1" stop-color="#2ab6d9"/>
		</linearGradient>
	</defs>
	<style>
		.s0 { fill: #ffffff } 
		.s1 { fill: url(#g1) } 
		.s2 { opacity: .5;fill: url(#g2) } 
		.s3 { opacity: .1;fill: url(#g3) } 
	</style>
	<g id="Layer">
		<path id="Layer" fill-rule="evenodd" class="s0" d="m31.6 9.8c0-3.5 2.6-6.1 6.2-6.1 3.6 0 6.2 2.6 6.2 6q0 0.5-0.1 1h-8.5c0.3 1.3 1.1 2 2.4 2 0.9 0 1.6-0.4 2-1.1h3.9c-0.8 2.6-3.1 4.2-5.9 4.2-3.6 0-6.2-2.5-6.2-6zm6.2-3c-1.2 0-2 0.6-2.3 1.7h4.6c-0.3-1.1-1.2-1.7-2.3-1.7zm7.3 3c0-3.5 2.5-6 5.9-6 1.4 0 2.6 0.4 3.5 1.2l0.4-0.9h2.9v11.4h-3l-0.3-0.8c-1 0.7-2.1 1.1-3.5 1.1-3.4 0-5.9-2.5-5.9-6zm9 0c0-1.5-1.1-2.6-2.5-2.6-1.5 0-2.6 1.1-2.6 2.6 0 1.5 1.1 2.6 2.6 2.6 1.4 0 2.5-1.1 2.5-2.6zm5.6 1.9h3.7c0 0.9 0.6 1.3 1.4 1.3 0.5 0 1.1-0.3 1.1-0.9 0-0.7-0.9-0.9-2-1-1.7-0.3-4.1-0.9-4.1-3.6 0-2.3 2-3.8 4.9-3.8 2.9 0 4.8 1.6 4.8 3.9h-3.7c0-0.8-0.5-1.1-1.2-1.1-0.6 0-1 0.3-1 0.9 0 0.6 0.9 0.7 1.9 0.9 1.8 0.4 4.2 0.7 4.2 3.6 0 2.4-2 3.9-5 3.9-3.1 0-5-1.6-5-4.1zm11.8 8v-3.4h1c1.5 0 2-0.4 2.5-1.8l-4.7-10.4h4.3l2.4 6.3 2.2-6.3h4.2l-4.7 10.9c-1.6 3.4-3 4.7-5.9 4.7zm16.4-5.1l-0.4 0.9h-2.9v-15.5h3.9v4.5q0.3-0.2 0.7-0.3 0.3-0.2 0.7-0.3 0.3-0.1 0.7-0.1 0.4-0.1 0.7-0.1c3.5 0 6 2.6 6 6.1 0 3.5-2.5 6-6 6-1.3 0-2.5-0.4-3.4-1.2zm5.5-4.8c0-1.5-1.1-2.6-2.6-2.6-1.5 0-2.5 1.1-2.5 2.6 0 1.5 1 2.6 2.5 2.6 1.5 0 2.6-1.1 2.6-2.6zm5.1 0c0-3.5 2.4-6 5.9-6 1.3 0 2.5 0.4 3.5 1.2l0.4-0.9h2.9v11.4h-3l-0.4-0.8c-0.9 0.7-2.1 1.1-3.4 1.1-3.5 0-5.9-2.5-5.9-6zm9 0c0-1.5-1.1-2.6-2.6-2.6-1.4 0-2.5 1.1-2.5 2.6 0 1.5 1.1 2.6 2.5 2.6 1.5 0 2.6-1.1 2.6-2.6zm6.2 5.7v-11.4h2.7l0.6 1.2c0.8-1 2.1-1.5 3.5-1.5 2.7 0 4.4 1.8 4.4 4.7v7h-3.9v-6.4q0-2-1.5-2c-1.2 0-1.9 0.9-1.9 2.3v6.1c0 0-3.9 0-3.9 0zm13.7 0v-15.5h3.9v8.6l2.7-4.5h4.4l-3.5 5.4 3.9 6h-4.6l-2.9-4.8v4.8z"/>
		<g id="Layer">
			<path id="Layer" fill-rule="evenodd" class="s1" d="m16.8 0l-10.8 19.7h-6l10.8-19.7z"/>
			<path id="Layer" fill-rule="evenodd" class="s2" d="m24.2 0l-10.8 19.7h-6l10.8-19.7z"/>
			<path id="Layer" fill-rule="evenodd" class="s3" d="m31.5 0l-10.8 19.7h-6l10.8-19.7z"/>
		</g>
	</g>
</svg>